<svg xmlns="http://www.w3.org/2000/svg" viewBox="0 0 960 360" role="img" aria-label="pixel ruined street" shape-rendering="crispEdges">
  <rect width="960" height="360" fill="#080202"/>
  <rect y="0" width="960" height="94" fill="#1b0505"/>
  <rect x="680" y="34" width="104" height="104" fill="#fee2e2" opacity=".9"/>
  <g fill="#1f0707">
    <rect x="34" y="156" width="80" height="132"/><rect x="132" y="112" width="112" height="176"/>
    <rect x="278" y="188" width="92" height="100"/><rect x="408" y="86" width="118" height="202"/>
    <rect x="566" y="142" width="90" height="146"/><rect x="704" y="72" width="128" height="216"/>
    <rect x="870" y="174" width="70" height="114"/>
  </g>
  <g fill="#020202">
    <polygon points="132,112 244,112 244,288 188,288 188,146 132,146"/>
    <polygon points="408,86 526,86 526,288 478,288 478,126 408,126"/>
    <polygon points="704,72 832,72 832,288 782,288 782,118 704,118"/>
  </g>
  <g fill="#fca5a5" opacity=".42">
    <rect x="60" y="184" width="10" height="10"/><rect x="158" y="136" width="10" height="10"/><rect x="198" y="176" width="10" height="10"/>
    <rect x="432" y="112" width="10" height="10"/><rect x="590" y="166" width="10" height="10"/><rect x="730" y="96" width="10" height="10"/>
  </g>
  <rect x="0" y="288" width="960" height="72" fill="#050000"/>
  <g fill="#2f0a0a">
    <rect x="0" y="302" width="120" height="14"/><rect x="176" y="318" width="170" height="16"/>
    <rect x="408" y="300" width="110" height="14"/><rect x="560" y="326" width="230" height="18"/>
    <rect x="820" y="306" width="140" height="16"/>
  </g>
  <g fill="#7f1d1d">
    <rect x="250" y="268" width="86" height="12"/><rect x="336" y="256" width="22" height="32"/>
    <rect x="612" y="270" width="120" height="12"/><rect x="734" y="254" width="18" height="34"/>
  </g>
</svg>
