<svg xmlns="http://www.w3.org/2000/svg" viewBox="0 0 960 360" role="img" aria-label="night city skyline">
  <defs>
    <linearGradient id="sky" x1="0" y1="0" x2="0" y2="1">
      <stop offset="0" stop-color="#2a1114"/>
      <stop offset="0.52" stop-color="#111827"/>
      <stop offset="1" stop-color="#050507"/>
    </linearGradient>
    <radialGradient id="glow" cx="72%" cy="16%" r="42%">
      <stop offset="0" stop-color="#f97316" stop-opacity="0.34"/>
      <stop offset="1" stop-color="#f97316" stop-opacity="0"/>
    </radialGradient>
  </defs>
  <rect width="960" height="360" fill="url(#sky)"/>
  <rect width="960" height="360" fill="url(#glow)"/>
  <circle cx="760" cy="86" r="38" fill="#fbbf24" opacity="0.7"/>
  <path d="M0 288h960v72H0z" fill="#09090b"/>
  <path d="M48 178h68v110H48zm86-42h92v152h-92zm124 75h78v77h-78zm108-116h102v193H366zm134 53h88v140h-88zm120-92h122v232H620zm152 128h78v104h-78zm110-64h62v168h-62z" fill="#18181b"/>
  <path d="M64 200h12v12H64zm34 0h12v12H98zm58-42h12v12h-12zm34 0h12v12h-12zm0 38h12v12h-12zm196-78h12v12h-12zm36 0h12v12h-12zm36 76h12v12h-12zm64-24h12v12h-12zm36 0h12v12h-12zm86-90h12v12h-12zm38 0h12v12h-12zm38 38h12v12h-12zm172 26h12v12h-12zm30 34h12v12h-12z" fill="#f59e0b" opacity="0.75"/>
  <path d="M0 300c120-34 214 28 314-8 96-34 143-66 255-31 93 29 160 0 238-22 65-18 108 1 153 21v100H0z" fill="#450a0a" opacity="0.55"/>
  <path d="M0 318c160-24 222 26 362-2 119-24 203-35 334 0 101 27 174 10 264-16v60H0z" fill="#0b0b0d"/>
</svg>
