<svg xmlns="http://www.w3.org/2000/svg" viewBox="0 0 960 360" role="img" aria-label="pixel night city skyline" shape-rendering="crispEdges">
  <rect width="960" height="360" fill="#07070a"/>
  <rect y="0" width="960" height="96" fill="#111114"/>
  <rect y="96" width="960" height="72" fill="#16161a"/>
  <rect x="710" y="36" width="64" height="64" fill="#f4f4f5" opacity=".8"/>
  <rect x="0" y="256" width="960" height="104" fill="#050505"/>
  <g fill="#18181b">
    <rect x="40" y="178" width="72" height="82"/><rect x="136" y="136" width="96" height="124"/>
    <rect x="260" y="210" width="76" height="50"/><rect x="366" y="100" width="102" height="160"/>
    <rect x="506" y="150" width="82" height="110"/><rect x="624" y="58" width="122" height="202"/>
    <rect x="780" y="184" width="76" height="76"/><rect x="884" y="124" width="54" height="136"/>
  </g>
  <g fill="#e5e7eb" opacity=".85">
    <rect x="62" y="196" width="10" height="10"/><rect x="92" y="196" width="10" height="10"/>
    <rect x="158" y="158" width="10" height="10"/><rect x="190" y="158" width="10" height="10"/><rect x="190" y="194" width="10" height="10"/>
    <rect x="392" y="124" width="10" height="10"/><rect x="424" y="124" width="10" height="10"/><rect x="456" y="196" width="10" height="10"/>
    <rect x="526" y="172" width="10" height="10"/><rect x="558" y="172" width="10" height="10"/>
    <rect x="650" y="84" width="10" height="10"/><rect x="686" y="84" width="10" height="10"/><rect x="718" y="120" width="10" height="10"/>
    <rect x="804" y="204" width="10" height="10"/><rect x="906" y="146" width="10" height="10"/>
  </g>
  <g fill="#27272a">
    <rect x="0" y="284" width="130" height="16"/><rect x="154" y="296" width="218" height="18"/>
    <rect x="416" y="278" width="182" height="14"/><rect x="666" y="300" width="294" height="20"/>
  </g>
  <g fill="#3f3f46" opacity=".55">
    <rect x="0" y="316" width="36" height="8"/><rect x="76" y="316" width="96" height="8"/><rect x="230" y="324" width="62" height="8"/>
    <rect x="360" y="316" width="130" height="8"/><rect x="552" y="328" width="84" height="8"/><rect x="724" y="318" width="160" height="8"/>
  </g>
</svg>
