<svg xmlns="http://www.w3.org/2000/svg" viewBox="0 0 960 360" role="img" aria-label="pixel underground market" shape-rendering="crispEdges">
  <rect width="960" height="360" fill="#060606"/>
  <rect x="0" y="0" width="960" height="54" fill="#111111"/>
  <g fill="#27272a">
    <rect x="26" y="52" width="80" height="196"/><rect x="220" y="52" width="70" height="196"/>
    <rect x="670" y="52" width="70" height="196"/><rect x="858" y="52" width="78" height="196"/>
  </g>
  <g fill="#111827">
    <rect x="0" y="248" width="960" height="112"/>
    <rect x="124" y="190" width="186" height="72"/><rect x="374" y="172" width="212" height="90"/>
    <rect x="642" y="202" width="194" height="60"/>
  </g>
  <g fill="#e5e7eb">
    <rect x="178" y="206" width="62" height="10"/><rect x="420" y="190" width="90" height="10"/><rect x="700" y="218" width="70" height="10"/>
  </g>
  <g fill="#a16207">
    <rect x="160" y="230" width="28" height="18"/><rect x="198" y="230" width="28" height="18"/><rect x="236" y="230" width="28" height="18"/>
    <rect x="430" y="218" width="30" height="20"/><rect x="472" y="218" width="30" height="20"/><rect x="514" y="218" width="30" height="20"/>
    <rect x="704" y="240" width="30" height="16"/><rect x="746" y="240" width="30" height="16"/>
  </g>
  <g fill="#fef3c7" opacity=".85">
    <rect x="128" y="78" width="72" height="16"/><rect x="444" y="72" width="72" height="16"/><rect x="760" y="82" width="72" height="16"/>
    <rect x="144" y="94" width="40" height="44" opacity=".35"/><rect x="460" y="88" width="40" height="52" opacity=".35"/><rect x="776" y="98" width="40" height="42" opacity=".35"/>
  </g>
  <g fill="#000">
    <rect x="328" y="224" width="20" height="38"/><rect x="604" y="220" width="20" height="42"/><rect x="830" y="226" width="18" height="36"/>
  </g>
</svg>
