<svg xmlns="http://www.w3.org/2000/svg" viewBox="0 0 960 360" role="img" aria-label="quiet city street">
  <defs>
    <linearGradient id="streetBg" x1="0" y1="0" x2="1" y2="1">
      <stop offset="0" stop-color="#082f49"/>
      <stop offset="0.5" stop-color="#18181b"/>
      <stop offset="1" stop-color="#0b0b0d"/>
    </linearGradient>
    <radialGradient id="neon" cx="72%" cy="30%" r="45%">
      <stop offset="0" stop-color="#22d3ee" stop-opacity="0.28"/>
      <stop offset="1" stop-color="#22d3ee" stop-opacity="0"/>
    </radialGradient>
  </defs>
  <rect width="960" height="360" fill="url(#streetBg)"/>
  <rect width="960" height="360" fill="url(#neon)"/>
  <path d="M0 286h960v74H0z" fill="#09090b"/>
  <path d="M84 114h150v172H84zm242 64h96v108h-96zm318-96h166v204H644z" fill="#27272a"/>
  <path d="M116 146h88v28h-88zm0 58h88v28h-88zm548-26h124v32H664zm0 62h124v32H664z" fill="#164e63" opacity="0.8"/>
  <path d="M0 318c180-14 314-42 462-36 166 7 287 46 498 18v60H0z" fill="#111827"/>
  <path d="M282 292h84m178 0h72" stroke="#facc15" stroke-opacity="0.55" stroke-width="7" stroke-linecap="round"/>
  <path d="M504 98v192" stroke="#52525b" stroke-width="10"/>
  <circle cx="504" cy="92" r="28" fill="#facc15" opacity="0.74"/>
</svg>
